<svg xmlns="http://www.w3.org/2000/svg" width="20" height="20" viewBox="0 0 20 20" fill="none"><path fill-rule="evenodd" clip-rule="evenodd" d="M9.08488 6.94405C9.08488 6.84389 9.1377 6.75807 9.22707 6.71288C9.31645 6.66768 9.41687 6.67608 9.49754 6.73549L13.6465 9.79143C13.715 9.84186 13.752 9.91499 13.752 9.99998C13.752 10.085 13.715 10.1581 13.6465 10.2085L9.49754 13.2644C9.41687 13.3239 9.31645 13.3323 9.22707 13.2871C9.1377 13.2419 9.08488 13.156 9.08488 13.0559V11.3429H1.14336C0.85832 11.3429 0.625 11.1096 0.625 10.8245V9.17545C0.625 8.89042 0.858281 8.65709 1.14336 8.65709H9.08488V6.94405ZM1.69008 6.17838H4.17051C5.42855 4.22366 7.6234 2.92893 10.1207 2.92893C14.0259 2.92893 17.1917 6.09471 17.1917 9.99995C17.1917 13.9052 14.0259 17.071 10.1207 17.071C7.62336 17.071 5.42852 15.7762 4.17051 13.8215H1.69008C3.14484 17.0257 6.3725 19.2542 10.1207 19.2542C15.2317 19.2542 19.375 15.1109 19.375 9.99995C19.375 4.88897 15.2317 0.745728 10.1207 0.745728C6.3725 0.745728 3.14484 2.97417 1.69008 6.17838Z" fill="white"></path></svg>